<svg width="22" height="18" viewBox="0 0 22 18" fill="none" xmlns="http://www.w3.org/2000/svg">
<path fill-rule="evenodd" clip-rule="evenodd" d="M0.208496 2C0.208496 1.03167 0.990163 0.25 1.9585 0.25C2.92683 0.25 3.7085 1.03167 3.7085 2C3.7085 2.96833 2.92683 3.75 1.9585 3.75C0.990163 3.75 0.208496 2.96833 0.208496 2ZM0.208496 9C0.208496 8.03167 0.990163 7.25 1.9585 7.25C2.92683 7.25 3.7085 8.03167 3.7085 9C3.7085 9.96833 2.92683 10.75 1.9585 10.75C0.990163 10.75 0.208496 9.96833 0.208496 9ZM1.9585 14.25C0.990163 14.25 0.208496 15.0433 0.208496 16C0.208496 16.9567 1.00183 17.75 1.9585 17.75C2.91516 17.75 3.7085 16.9567 3.7085 16C3.7085 15.0433 2.92683 14.25 1.9585 14.25ZM21.7918 17.1667H5.4585V14.8333H21.7918V17.1667ZM5.4585 10.1667H21.7918V7.83333H5.4585V10.1667ZM5.4585 3.16667V0.833333H21.7918V3.16667H5.4585Z" fill="black" fill-opacity="0.54"/>
</svg>
