<svg width="24" height="22" viewBox="0 0 24 22" fill="none" xmlns="http://www.w3.org/2000/svg">
<path fill-rule="evenodd" clip-rule="evenodd" d="M8.90843 0.5C3.99893 0.5 0.0134277 3.4805 0.0134277 7.157C0.0134277 10.511 3.33593 13.28 7.65143 13.7375L5.81993 17.39L12.1934 13.34C15.4769 12.359 17.9999 9.9635 17.9999 7.157C17.9999 3.482 13.8194 0.5 8.90843 0.5Z" fill="white"/>
<path fill-rule="evenodd" clip-rule="evenodd" d="M23.9203 13.835C23.9203 12.149 22.3273 10.403 20.4868 9.53296C19.9708 12.458 17.6008 15.1505 13.8613 16.2035L12.0808 17.1665C12.7618 17.6765 13.5958 18.083 14.5318 18.3485L19.9888 21.305L18.0343 18.641C21.3598 18.3035 23.9203 16.2845 23.9203 13.835Z" fill="white"/>
</svg>
