<svg width="24" height="24" viewBox="0 0 24 24" fill="none" xmlns="http://www.w3.org/2000/svg">
<path d="M20.2981 12.2294H18.9208C18.0641 12.7176 17.0769 13.0006 16.0225 13.0006C14.968 13.0006 13.9808 12.7176 13.1241 12.2294H3.70192C1.65711 12.2294 0 13.8869 0 15.9314C0 17.5068 0.988037 18.8434 2.37545 19.3781V20.3173C2.37545 21.0813 2.99448 21.7008 3.75898 21.7008H5.42939C6.19385 21.7008 6.81288 21.0813 6.81288 20.3173V19.6333H17.1871V20.3173C17.1871 21.0813 17.8061 21.7008 18.5706 21.7008H20.241C21.0055 21.7008 21.6245 21.0813 21.6245 20.3173V19.409C23.0119 18.9318 23.9999 17.6979 23.9999 15.9314C24 13.8467 22.3429 12.2294 20.2981 12.2294Z" fill="white"/>
<path d="M20.5991 10.7994C22.5009 10.65 24 9.13716 24 7.12679C24 5.30669 22.5024 3.62647 20.6022 3.45764C21.4104 4.46403 21.8967 5.7385 21.8967 7.12635C21.8967 8.51612 21.4089 9.79265 20.5991 10.7994Z" fill="white"/>
<path d="M3.70192 10.8287H11.4669C10.6439 9.81762 10.1483 8.52902 10.1483 7.1264C10.1483 5.72412 10.6439 4.43596 11.4669 3.42487H3.70192C1.65711 3.42487 0 5.08237 0 7.12679C0 9.17121 1.65711 10.8287 3.70192 10.8287ZM3.02583 6.69297C3.68868 6.69297 4.22646 7.23036 4.22646 7.8936C4.22646 8.55684 3.68868 9.09423 3.02583 9.09423C2.36299 9.09423 1.8252 8.55684 1.8252 7.8936C1.8252 7.23036 2.36299 6.69297 3.02583 6.69297Z" fill="white"/>
<path d="M16.0224 11.9539C18.6839 11.9539 20.8498 9.78833 20.8498 7.1264C20.8498 4.46481 18.6839 2.29926 16.0224 2.29926C13.3609 2.29926 11.1948 4.46486 11.1948 7.1264C11.1949 9.78833 13.3609 11.9539 16.0224 11.9539ZM16.0224 3.6953C17.9148 3.6953 19.4538 5.23437 19.4538 7.1264C19.4538 9.01843 17.9148 10.5578 16.0224 10.5578C14.13 10.5578 12.5909 9.01843 12.5909 7.1264C12.591 5.23437 14.13 3.6953 16.0224 3.6953Z" fill="white"/>
</svg>
