<svg width="20" height="20" viewBox="0 0 20 20" fill="none" xmlns="http://www.w3.org/2000/svg">
<path d="M10 0C4.477 0 0 4.477 0 10C0 15.523 4.477 20 10 20C15.523 20 20 15.523 20 10C20 4.477 15.523 0 10 0ZM10 18.5C8.8837 18.4999 7.77834 18.28 6.74704 17.8527C5.71573 17.4255 4.77868 16.7993 3.98939 16.0099C3.20009 15.2205 2.574 14.2834 2.14687 13.252C1.71974 12.2207 1.49993 11.1153 1.5 9.999C1.50007 8.8827 1.72 7.77734 2.14725 6.74604C2.5745 5.71473 3.2007 4.77768 3.99009 3.98839C4.77948 3.19909 5.71661 2.573 6.74796 2.14587C7.77931 1.71874 8.8847 1.49893 10.001 1.499C12.2555 1.49913 14.4176 2.39485 16.0116 3.98909C17.6057 5.58334 18.5011 7.74553 18.501 10C18.5009 12.2545 17.6052 14.4166 16.0109 16.0106C14.4167 17.6047 12.2545 18.5001 10 18.5ZM10 10.5C6.962 10.5 4.5 12.228 4.5 14C4.5 15.772 6.962 17.5 10 17.5C13.038 17.5 15.5 15.772 15.5 14C15.5 12.228 13.038 10.5 10 10.5ZM10 10C10.7956 10 11.5587 9.68393 12.1213 9.12132C12.6839 8.55871 13 7.79565 13 7C13 6.20435 12.6839 5.44129 12.1213 4.87868C11.5587 4.31607 10.7956 4 10 4C9.20435 4 8.44129 4.31607 7.87868 4.87868C7.31607 5.44129 7 6.20435 7 7C7 7.79565 7.31607 8.55871 7.87868 9.12132C8.44129 9.68393 9.20435 10 10 10Z" fill="black" fill-opacity="0.54"/>
</svg>
