<svg width="480" height="548" viewBox="0 0 480 548" fill="none" xmlns="http://www.w3.org/2000/svg">
<g clip-path="url(#clip0)">
<path opacity="0.1" d="M341.143 547.993C368.225 547.993 390.179 545.029 390.179 541.372C390.179 537.716 368.225 534.751 341.143 534.751C314.061 534.751 292.106 537.716 292.106 541.372C292.106 545.029 314.061 547.993 341.143 547.993Z" fill="#6C63FF"/>
<path opacity="0.1" d="M210.15 8.01587C231.747 -2.97976 258.039 6.47688 280.492 20.2689C351.011 63.5965 402.385 145.844 443.203 229.638C457.982 259.979 472.02 291.656 477.575 325.527C488.888 394.467 459.383 465.837 409.203 490.848C392.139 499.361 373.392 502.852 354.616 504.797C321.228 508.261 286.66 506.886 253.54 494.057C229.921 484.888 207.578 470.14 186.148 453.846C126.301 408.318 71.6466 349.195 32.2921 276.973C15.0318 245.296 0.429803 209.585 0.00905272 173.035C-0.411698 136.486 16.9777 99.7596 45.5888 93.5447C57.4176 90.9775 69.9302 93.6495 82.1367 96.4C100.109 100.454 118.326 104.717 136.093 102.949C154.448 101.109 178.321 91.2853 181.668 67.2835C185.211 41.5136 188.582 18.9984 210.15 8.01587Z" fill="#6C63FF"/>
<path d="M116.672 503.487C116.672 503.487 139.747 501.581 137.026 523.73C137.026 523.73 137.566 527.659 134.975 529.421C134.975 529.421 134.937 527.777 132.608 528.334C131.781 528.528 130.94 528.586 130.103 528.504C128.971 528.397 127.895 527.787 127.038 526.768C127.038 526.768 120.55 523.101 118.03 508.576C118.03 508.576 116.161 505.412 116.237 504.594L120.129 506.873C120.129 506.873 118.8 510.724 119.847 513.919C119.847 513.919 119.971 507.017 120.722 507.174C120.87 507.207 122.744 508.484 122.744 508.484C122.744 508.484 120.454 515.183 122.18 520.056C122.18 520.056 121.525 511.798 123.457 508.968L126.201 511.162C126.201 511.162 123.524 518.085 125.341 523.73C125.341 523.73 124.863 515.066 126.775 511.693L129.261 514.312C129.261 514.312 126.746 521.136 128.281 525.825C128.281 525.825 128.477 515.734 129.797 514.974C129.797 514.974 131.972 517.593 132.302 518.681C132.302 518.681 130.581 523.632 131.647 526.245C131.647 526.245 132.302 519.525 132.842 519.493C132.842 519.493 135.004 523.946 135.233 526.998C135.233 526.998 135.137 522.459 133.364 519.067C133.364 519.067 135.458 519.558 136.682 521.418C136.682 521.418 136.342 518.268 132.833 517.993C132.833 517.993 131.045 514.62 130.562 514.411C130.562 514.411 134.057 514.011 136.175 515.301C136.175 515.301 134.31 512.328 129.921 513.677L127.468 510.94C127.468 510.94 132.073 510.075 134.019 511.031C134.019 511.031 131.776 508.412 126.809 510.318L124.141 508.13C124.141 508.13 128.061 506.971 130.399 507.39C130.399 507.39 127.932 505.57 123.356 507.541L121.444 506.369C121.444 506.369 124.313 505.596 125.159 505.471C126.005 505.347 126.043 505.033 126.043 505.033C124.224 504.615 122.355 504.898 120.645 505.851C120.645 505.851 116.601 503.867 116.672 503.487Z" fill="#6C63FF"/>
<path opacity="0.1" d="M132.565 535.131C141.585 535.131 148.898 533.44 148.898 531.353C148.898 529.266 141.585 527.574 132.565 527.574C123.545 527.574 116.232 529.266 116.232 531.353C116.232 533.44 123.545 535.131 132.565 535.131Z" fill="#6C63FF"/>
<path d="M85.7614 488.588C85.7614 488.588 98.7712 487.514 97.2364 500.003C97.3175 500.636 97.2495 501.288 97.0424 501.865C96.8353 502.442 96.4997 502.913 96.0841 503.212C96.0841 503.212 96.0602 502.289 94.7502 502.603C94.2845 502.712 93.8108 502.743 93.3397 502.695C92.6998 502.641 92.0911 502.297 91.6089 501.719C91.6089 501.719 87.956 499.643 86.5216 491.457C86.5216 491.457 85.4697 489.669 85.508 489.21L87.7074 490.52C87.7074 490.52 86.9567 492.694 87.5448 494.495C87.5448 494.495 87.6165 490.599 88.0229 490.69C88.109 490.69 89.1656 491.444 89.1656 491.444C89.1656 491.444 87.8747 495.222 88.8501 497.992C88.8501 497.992 88.4771 493.336 89.5673 491.738L91.1116 492.976C91.1116 492.976 89.6055 496.905 90.6335 500.062C90.6335 500.062 90.3705 495.176 91.4415 493.277L92.8424 494.77C92.8424 494.77 91.4081 498.615 92.2926 501.26C92.2926 501.26 92.4025 495.569 93.1484 495.144C93.1484 495.144 94.3724 496.624 94.5589 497.233C94.5589 497.233 93.6027 500.023 94.1908 501.496C94.1908 501.496 94.5589 497.711 94.8649 497.691C94.8649 497.691 96.0841 500.199 96.2084 501.922C96.1475 500.331 95.7849 498.789 95.1566 497.449C95.86 497.625 96.5101 498.081 97.026 498.759C97.026 498.759 96.8396 496.984 94.8553 496.827C94.8553 496.827 93.8465 494.921 93.5788 494.81C93.5788 494.81 95.5486 494.58 96.7439 495.307C96.7439 495.307 95.6921 493.631 93.2154 494.391L91.8336 492.845C91.8336 492.845 94.4298 492.36 95.5295 492.897C95.5295 492.897 94.2625 491.417 91.4606 492.498L89.9593 491.26C91.1159 490.914 92.3004 490.775 93.4831 490.848C93.4831 490.848 92.0966 489.819 89.5147 490.933L88.4389 490.278C88.4389 490.278 90.0597 489.839 90.5331 489.774C91.0064 489.708 91.0351 489.525 91.0351 489.525C90.008 489.292 88.9538 489.452 87.9895 489.99C87.9895 489.99 85.7231 488.804 85.7614 488.588Z" fill="#6C63FF"/>
<path opacity="0.1" d="M94.7215 506.427C99.8073 506.427 103.93 505.472 103.93 504.293C103.93 503.113 99.8073 502.158 94.7215 502.158C89.6357 502.158 85.5128 503.113 85.5128 504.293C85.5128 505.472 89.6357 506.427 94.7215 506.427Z" fill="#6C63FF"/>
<path d="M405.824 500.592C405.824 500.592 421.53 499.283 419.689 514.345C419.783 515.11 419.699 515.897 419.449 516.593C419.198 517.288 418.794 517.859 418.293 518.222C418.293 518.222 418.264 517.102 416.682 517.482C416.118 517.613 415.545 517.651 414.975 517.593C414.204 517.525 413.472 517.111 412.89 516.415C412.89 516.415 408.472 513.919 406.756 504.031C406.756 504.031 405.484 501.876 405.537 501.326L408.186 502.871C408.186 502.871 407.282 505.491 407.994 507.672C407.994 507.672 408.08 502.97 408.587 503.088C408.692 503.088 409.964 503.991 409.964 503.991C409.964 503.991 408.406 508.576 409.582 511.85C409.582 511.85 409.137 506.231 410.452 504.306L412.317 505.792C412.317 505.792 410.495 510.507 411.733 514.352C411.733 514.352 411.413 508.458 412.69 506.159L414.382 507.967C414.382 507.967 412.67 512.61 413.713 515.825C413.713 515.825 413.851 508.962 414.75 508.438C414.75 508.438 416.228 510.226 416.452 510.959C416.452 510.959 415.281 514.332 416.008 516.113C416.008 516.113 416.452 511.529 416.821 511.529C416.821 511.529 418.293 514.561 418.446 516.637C418.375 514.718 417.938 512.857 417.179 511.241C418.029 511.461 418.813 512.017 419.436 512.839C419.436 512.839 419.206 510.697 416.811 510.507C416.811 510.507 415.597 508.209 415.271 508.071C415.271 508.071 417.662 507.796 419.096 508.674C419.096 508.674 417.825 506.657 414.836 507.574L413.168 505.707C413.168 505.707 416.299 505.118 417.629 505.766C417.629 505.766 416.099 503.978 412.718 505.281L410.901 503.795C410.901 503.795 413.569 503.009 415.161 503.291C415.161 503.291 413.483 502.053 410.38 503.395L409.08 502.596C409.08 502.596 411.035 502.066 411.609 501.987C412.183 501.909 412.211 501.686 412.211 501.686C410.973 501.403 409.702 501.596 408.539 502.243C408.539 502.243 405.776 500.841 405.824 500.592Z" fill="#6C63FF"/>
<path opacity="0.1" d="M416.639 522.138C422.778 522.138 427.755 520.986 427.755 519.565C427.755 518.143 422.778 516.991 416.639 516.991C410.499 516.991 405.522 518.143 405.522 519.565C405.522 520.986 410.499 522.138 416.639 522.138Z" fill="#6C63FF"/>
<path d="M390.175 341.604C389.873 339.299 389.699 336.965 389.653 334.623C389.653 331.814 386.866 329.325 386.866 329.325C386.866 329.325 385.145 323.87 383.997 323.064C382.85 322.259 379.307 315.121 379.307 315.121C379.266 313.713 378.892 312.361 378.241 311.27C377.179 309.359 376.21 307.355 375.338 305.271C374.86 304.472 375.099 303.909 374.382 299.253C374.344 299.01 374.301 298.775 374.248 298.552C374.248 298.447 374.2 298.355 374.172 298.251C374.933 297.205 375.463 295.887 375.703 294.447C375.942 293.007 375.88 291.504 375.525 290.11C375.396 289.556 375.162 289.059 374.846 288.67C374.038 287.766 372.747 288.139 371.915 287.281L372.799 281.924C373.01 280.614 373.12 278.958 372.283 278.25C371.969 278.046 371.638 277.894 371.298 277.798C369.864 277.143 369.032 275.067 368.659 273.07C368.3 271.146 368.203 269.148 368.372 267.176C368.535 265.277 368.941 263.43 369.089 261.524C369.359 257.999 368.74 254.454 367.334 251.478C366.788 250.194 365.983 249.153 365.016 248.479C364.131 247.935 363.103 247.824 362.276 247.169C360.497 245.617 360.588 241.93 359.168 239.815C357.748 237.699 355.233 237.706 353.163 238.433C351.093 239.16 349.032 240.398 346.909 240.09C345.541 239.88 344.26 239.029 342.888 238.832C342.495 238.781 342.099 238.806 341.712 238.904V238.845C340.698 239.094 339.766 239.867 339.527 241.183C339.473 241.497 339.45 241.818 339.46 242.14C339.46 242.906 339.594 243.705 339.603 244.438C339.621 244.73 339.596 245.023 339.529 245.301C339.463 245.579 339.356 245.835 339.216 246.056C338.943 246.455 338.542 246.665 338.26 247.077C338.145 247.235 338.054 247.423 337.994 247.631C337.934 247.838 337.906 248.06 337.911 248.282C337.911 249.448 338.972 250.476 339.684 250.948H339.713C339.522 251.21 339.331 251.485 339.154 251.766C337.111 254.926 335.985 259.001 335.989 263.221C336.006 266.629 336.75 269.956 338.13 272.792C339.509 275.629 341.464 277.852 343.753 279.187L343.653 279.612C343.452 280.454 343.217 281.281 342.95 282.088C342.455 281.86 341.93 281.783 341.412 281.862C340.893 281.941 340.393 282.175 339.947 282.546C338.58 283.856 335.907 283.751 335.195 283.509C334.482 283.267 327.067 281.983 326.469 282.304C325.871 282.625 324.69 281.184 323.921 283.11C323.151 285.035 322.792 286.076 322.008 286.561C321.224 287.045 319.871 288.565 320.053 288.886C320.234 289.207 318.092 291.132 318.092 291.132C318.092 291.132 316.251 293.752 315.185 294.099C314.119 294.446 311.862 296.43 311.862 296.43L309.247 299.233C309.247 299.233 307.291 299.639 307.884 297.792C308.477 295.945 306.813 293.621 306.813 293.621C306.813 293.621 303.49 284.393 303.49 282.487C303.49 280.582 300.76 272.454 300.76 272.454L300.426 272.409L300.273 271.813C299.771 269.881 299.12 267.51 298.623 266.122C297.667 263.469 297.079 263.194 297.079 263.194C297.079 263.194 285.565 251.354 278.087 254.962C270.61 258.571 291.738 269.324 293.636 270.451C294.301 270.843 294.779 272.114 295.114 273.601C293.429 274.713 292.011 276.46 291.026 278.637C291.026 278.637 295.596 292.514 295.716 295.965C295.836 299.416 298.862 309.063 298.862 309.063C298.862 309.063 299.99 316.208 306.101 315.802C306.101 315.802 314.53 317.924 316.371 315.802C318.212 313.68 319.871 312.016 320.765 311.774C321.423 311.478 322 310.919 322.424 310.17C322.424 310.17 319.637 334.237 318.269 336.326C316.902 338.415 304.82 365.436 309.156 370.269C312.591 373.912 316.22 377.195 320.014 380.092C320.382 380.341 321.487 377.82 323.065 376.032C323.065 376.484 323.065 376.942 323.065 377.427C323.093 387.041 324.021 401.658 325.302 404.932C327.215 409.746 326.431 419.052 326.431 419.052C327.436 419.7 328.528 420.059 329.639 420.106C329.696 420.421 329.763 420.761 329.825 421.089C330.873 426.505 332.57 434.881 333.435 437.107C334.741 440.48 335.687 451.155 335.687 451.155C335.687 451.155 336.462 461.633 336.165 463.106C336.051 463.663 336.553 468.025 337.342 473.585C336.864 481.109 335.955 495.615 335.802 500.861C335.802 500.959 335.802 501.057 335.802 501.149V501.241C335.804 501.3 335.804 501.359 335.802 501.418C335.802 501.535 335.802 501.64 335.802 501.738C335.787 502.069 335.797 502.4 335.831 502.727C335.89 503.227 335.862 503.739 335.749 504.22C335.411 505.671 334.981 507.078 334.463 508.425C334.245 509.087 334.054 509.765 333.89 510.455C333.411 510.743 332.828 511.444 332.503 513.153C331.91 516.284 331.021 524.941 331.021 524.941C331.021 524.941 330.662 530.239 329.955 531.444C329.247 532.649 328.52 540.187 333.574 541.15C338.628 542.113 340.813 537.482 340.813 537.482L340.636 516.474V516.434C340.738 516.258 340.826 516.067 340.899 515.864V515.812C340.932 515.714 340.971 515.609 341.004 515.491L341.047 515.334L341.124 515.079C341.121 515.048 341.121 515.017 341.124 514.987C341.614 512.975 341.761 510.835 341.554 508.733V508.628V508.464C341.554 508.412 341.554 508.353 341.554 508.301V507.973C341.554 507.934 341.554 507.888 341.554 507.849C341.554 507.709 341.563 507.565 341.583 507.416C341.583 507.416 341.583 507.364 341.583 507.338L341.611 507.082V506.971C341.611 506.886 341.611 506.801 341.65 506.709C341.648 506.687 341.648 506.665 341.65 506.644C341.697 506.342 341.755 505.989 341.817 505.701V505.629L341.889 505.314C341.96 504.98 342.042 504.659 342.128 504.306V504.24C342.128 504.135 342.18 504.031 342.209 503.932V503.893C342.295 503.572 342.386 503.238 342.472 502.963L342.496 502.878L342.572 502.616L342.596 502.537L342.778 501.955L344.179 507.881C344.179 507.881 344.953 512.295 344.537 513.337C344.121 514.378 345.016 518.713 345.604 518.792L345.054 524.247C344.757 527.255 344.579 530.283 344.523 533.317C344.485 533.664 344.447 533.972 344.418 534.182C344.035 536.978 344.953 541.314 344.953 541.314C349.639 548.904 355.224 541.903 355.224 541.903C355.224 541.903 355.874 537.888 355.224 537.09C354.573 536.291 354.865 533.396 354.865 533.396C354.865 533.396 355.161 526.251 355.219 521.038C355.276 515.825 352.106 511.215 352.106 511.215L351.929 511.431C351.351 509.388 350.691 507.004 350.83 505.936C351.069 504.09 350.175 484.593 350.175 484.593C350.505 479.367 350.575 474.116 350.385 468.876C350.461 467.992 350.533 467.121 350.605 466.256C350.963 462.065 351.255 458.483 351.37 456.603V456.381C351.399 455.876 351.413 455.516 351.408 455.346C351.408 454.691 351.408 453.945 351.456 453.126C351.566 450.873 351.824 448.365 351.824 448.365L353.067 438.011C353.067 438.011 354.023 432.955 355.386 430.152L355.549 429.799C355.601 429.674 355.654 429.537 355.711 429.393L355.735 429.334C355.788 429.196 355.845 429.052 355.898 428.901L355.922 428.843C356.113 428.325 356.318 427.729 356.534 427.074C356.534 427.022 356.567 426.976 356.581 426.924L356.744 426.426C356.744 426.36 356.782 426.295 356.806 426.23C356.83 426.164 356.907 425.896 356.959 425.732C356.983 425.666 357.003 425.598 357.021 425.529C357.083 425.332 357.15 425.129 357.213 424.92L357.303 424.618C357.346 424.468 357.394 424.317 357.442 424.167L357.557 423.767C357.59 423.669 357.619 423.571 357.648 423.472L357.777 423.021C357.777 422.955 357.82 422.883 357.839 422.818C358.178 421.658 358.503 420.512 358.795 419.471C358.886 419.144 358.977 418.816 359.058 418.528C362.099 418.783 364.164 419.013 364.164 419.013C364.164 419.013 365.121 409.628 364.815 403.452C364.614 399.235 365.188 393.93 365.565 391.009C365.608 390.689 365.647 390.4 365.685 390.138L365.766 390.23C367.253 391.835 368.319 386.537 368.319 386.537C368.319 386.537 367.918 381.592 367.363 375.6L367.306 375.004C368.163 375.254 369.03 375.436 369.902 375.547C369.902 375.547 370.38 375.489 371.035 375.377C372.847 376.814 374.76 377.999 376.744 378.914L379.904 370.924C380.498 369.268 381.194 367.684 381.984 366.189C382.941 364.585 386.316 359.45 386.259 358.488C386.201 357.525 387.387 351.984 388.573 349.496C389.759 347.007 390.232 342.004 390.175 341.604ZM376.997 347.701C375.749 348.422 374.564 352.436 374.506 353.641C374.449 354.846 373.139 360.138 371.776 360.78C370.519 361.369 368.119 364.395 367.736 364.879C367.344 364.925 366.899 364.997 366.436 365.102C365.914 360.04 365.398 355.848 365.068 355.004C364.112 352.594 366.115 344.892 366.115 344.892C366.115 344.892 366.311 337.112 367.55 335.265C368.788 333.418 368.506 328.762 368.506 328.762C368.506 328.762 368.802 326.837 368.922 325.959C369.041 325.082 370.686 325.959 370.7 325.959C370.7 325.959 373.904 328.363 374.382 331.971C374.86 335.579 378.36 341.84 378.36 341.84C378.36 341.84 377.825 344.008 378.36 345.115C378.896 346.221 378.245 346.981 376.997 347.701Z" fill="url(#paint0_linear)"/>
<path d="M291.159 279.128C292.134 276.926 293.561 275.166 295.262 274.069C296.963 272.972 298.862 272.586 300.722 272.959V282.33H296.567L293.316 281.204L291.159 279.128Z" fill="#4C4981"/>
<path opacity="0.1" d="M291.159 279.128C292.134 276.926 293.561 275.166 295.262 274.069C296.963 272.972 298.862 272.586 300.722 272.959V282.33H296.567L293.316 281.204L291.159 279.128Z" fill="black"/>
<path d="M301.033 275.441L295.941 280.326C295.941 280.326 295.898 279.35 295.769 278.014C295.515 275.487 294.946 271.695 293.717 270.961C291.848 269.835 271.035 259.108 278.417 255.499C285.8 251.891 297.126 263.718 297.126 263.718C297.126 263.718 297.71 263.993 298.642 266.632C299.12 268.021 299.775 270.385 300.268 272.317C300.722 274.059 301.033 275.441 301.033 275.441Z" fill="#AE6E79"/>
<path d="M341.712 282.965L342.29 282.592L343.916 285.133L342.587 289.017L340.32 287.772L340.846 284.668L341.712 282.965Z" fill="#4C4981"/>
<path d="M334.009 510.416C334.009 510.416 332.546 510.18 331.963 513.304C331.379 516.428 330.5 525.092 330.5 525.092C330.5 525.092 330.151 530.377 329.448 531.582C328.745 532.787 328.047 540.312 333.015 541.268C337.982 542.224 340.148 537.607 340.148 537.607L339.971 516.605L334.009 510.416Z" fill="#444053"/>
<path d="M351.346 511.359C351.346 511.359 354.473 515.943 354.416 521.143C354.358 526.343 354.062 533.475 354.062 533.475C354.062 533.475 353.775 536.363 354.416 537.162C355.056 537.961 354.416 541.968 354.416 541.968C354.416 541.968 348.917 548.956 344.298 541.379C344.298 541.379 343.399 537.05 343.772 534.26C344.145 531.471 345.188 518.929 345.188 518.929L351.346 511.359Z" fill="#444053"/>
<path d="M359.092 415.594C359.092 415.594 355.936 427.683 354.588 430.486C353.239 433.289 352.312 438.345 352.312 438.345L351.083 448.673C350.843 450.982 350.706 453.309 350.672 455.641C350.729 457.966 347.631 491.837 347.631 491.837L342.721 500.409C342.721 500.409 340.559 506.414 340.908 508.923C341.258 511.431 340.674 515.413 339.952 516.611C339.952 516.611 339.838 524.47 339.661 526.218C339.484 527.967 340.306 532.951 339.661 533.828C339.015 534.706 330.423 534.313 330.189 532.865C329.955 531.418 331.241 524.457 331.241 524.457L332.001 517.731C332.001 517.731 333.521 514.05 333.172 512.845C332.823 511.64 333.813 508.844 333.87 508.602C333.928 508.359 335.51 504.437 335.219 502.917C334.927 501.398 337.06 469.086 337.06 469.086L343.079 411.187L359.092 415.594Z" fill="#AE6E79"/>
<path opacity="0.1" d="M359.092 415.594C359.092 415.594 358.614 417.415 357.958 419.805C356.916 423.577 355.415 428.77 354.588 430.486C353.244 433.289 352.307 438.345 352.307 438.345L351.078 448.679C350.841 450.989 350.705 453.315 350.672 455.647C350.672 456.564 350.222 462.412 349.649 469.151C348.764 479.453 347.631 491.843 347.631 491.843L342.721 500.416C342.721 500.416 342.472 501.07 342.161 502.105C341.544 504.07 340.674 507.259 340.908 508.903C341.258 511.385 340.674 515.386 339.952 516.591C339.952 516.591 339.833 524.45 339.661 526.199C339.488 527.947 340.306 532.924 339.661 533.809C339.015 534.693 330.423 534.293 330.189 532.852C329.955 531.412 331.241 524.444 331.241 524.444L332.001 517.711C332.001 517.711 333.521 514.031 333.168 512.826C332.814 511.621 333.813 508.824 333.87 508.582C333.928 508.34 335.51 504.417 335.219 502.898C334.994 501.739 336.175 482.766 336.725 473.768C336.911 470.939 337.031 469.099 337.031 469.099L342.209 419.288L342.63 415.273L343.051 411.2L359.092 415.594Z" fill="black"/>
<path d="M353.832 536.035C353.885 536.919 345.585 538.203 344.399 537.24C343.213 536.277 344.399 524.345 344.399 524.345L344.939 518.903C344.361 518.818 343.481 514.496 343.887 513.454C344.294 512.413 343.538 508.012 343.538 508.012L342.161 502.118L341.32 498.51C339.952 494.377 337.973 482.589 336.744 473.788C335.969 468.26 335.477 463.905 335.587 463.349C335.879 461.908 335.109 451.417 335.109 451.417C335.109 451.417 334.153 440.762 332.89 437.402C332.034 435.175 330.366 426.812 329.333 421.416C328.807 418.646 328.444 416.655 328.444 416.655C328.444 416.655 337.279 415.64 342.639 415.286C345.102 415.123 346.832 415.103 346.632 415.378C346.431 415.653 346.378 417.12 346.388 419.242C346.412 424.736 346.971 434.403 347.564 437.002C348.382 440.604 349.199 451.41 348.85 452.458C348.501 453.506 348.616 460.467 348.616 460.467C349.218 463.295 349.565 466.214 349.649 469.158C349.836 474.373 349.768 479.6 349.448 484.803C349.448 484.803 350.323 504.266 350.088 506.107C349.854 507.947 351.958 513.716 351.958 514.836C351.958 515.956 352.541 523.566 352.541 523.566C352.541 523.566 353.794 535.158 353.832 536.035Z" fill="#AE6E79"/>
<path d="M358.446 302.108L357.442 303.595L356.787 304.564L352.962 310.196L343.079 311.722L337.82 309.796L336.519 309.318C336.519 309.318 336.519 305.703 336.754 301.368C337.088 295.808 337.887 289.056 339.794 287.216C340.75 286.191 341.512 284.869 342.018 283.358C342.399 282.317 342.719 281.235 342.974 280.123C343.012 279.979 343.041 279.842 343.074 279.698C343.505 277.757 343.815 275.77 344.002 273.758C344.002 273.758 345.264 272.802 347.019 271.688C351.595 268.761 359.498 264.72 356.749 273.758C356.345 275.081 356 276.437 355.716 277.818C355.673 278.021 355.635 278.224 355.601 278.421C354.683 283.45 355.29 286.502 355.974 288.185C356.09 288.476 356.223 288.755 356.371 289.017C356.558 289.368 356.782 289.679 357.036 289.94L358.174 299.835L358.269 300.654L358.446 302.108Z" fill="#AE6E79"/>
<path opacity="0.1" d="M356.754 274.242C356.232 275.958 357.007 272.841 356.754 274.242C354.669 276.272 349.759 282.055 347 282.055C345.135 282.055 344.576 281.59 342.979 280.601C343.462 278.529 343.806 276.4 344.007 274.242C344.007 274.242 360.555 261.747 356.754 274.242Z" fill="black"/>
<path d="M360.966 263.718C360.963 268.031 359.796 272.19 357.689 275.396C355.582 278.601 352.684 280.625 349.553 281.079C349.113 281.138 348.668 281.178 348.219 281.178C345.698 281.178 343.233 280.154 341.137 278.235C339.041 276.317 337.407 273.59 336.442 270.4C335.478 267.209 335.225 263.699 335.717 260.312C336.209 256.925 337.423 253.814 339.206 251.373C340.988 248.931 343.26 247.268 345.732 246.594C348.205 245.921 350.768 246.266 353.097 247.588C355.426 248.909 357.417 251.147 358.818 254.018C360.218 256.889 360.966 260.265 360.966 263.718Z" fill="#AE6E79"/>
<path opacity="0.1" d="M362.778 341.113L360.961 347.603C360.961 347.603 359.484 347.688 357.179 347.787C349.4 348.127 332.259 348.559 331.494 345.822C331.323 345.127 331.232 344.4 331.226 343.667C331.126 339.496 332.546 333.091 332.546 333.091C332.546 333.091 333.364 320.275 333.364 319.718C333.364 319.161 332.661 310.183 332.661 310.183L334.066 302.979L337.982 299.213C337.982 299.213 339.737 302.9 340.789 303.215C341.841 303.529 343.247 305.304 343.247 305.304C343.247 305.304 346.694 308.185 347.808 306.581C348.922 304.976 357.571 297.93 357.571 297.93L362.132 304.819L362.778 341.113Z" fill="black"/>
<path d="M362.778 342.109L360.961 348.592C360.961 348.592 359.484 348.684 357.179 348.782H356.954C355.96 348.828 354.822 348.874 353.608 348.906C347.425 349.103 338.91 349.155 334.459 348.252C332.785 347.924 331.69 347.453 331.509 346.811C331.408 346.425 331.337 346.025 331.298 345.619C331.269 345.318 331.25 344.964 331.241 344.656C331.14 340.485 332.56 334.08 332.56 334.08C332.56 334.08 333.378 321.264 333.378 320.707C333.378 320.15 332.675 311.172 332.675 311.172L334.081 303.968L336.773 301.388L337.997 300.209C338.408 301.053 338.857 301.862 339.34 302.632C339.718 303.326 340.222 303.87 340.803 304.21C341.86 304.531 343.261 306.299 343.261 306.299C343.261 306.299 346.708 309.181 347.822 307.576C348.668 306.352 353.928 301.944 356.357 299.934C357.103 299.312 357.586 298.925 357.586 298.925L358.198 299.855L362.147 305.815L362.778 342.109Z" fill="white"/>
<path opacity="0.1" d="M301.033 275.441L295.941 280.326C295.941 280.326 295.898 279.35 295.769 278.014C298.284 276.561 299.814 273.345 300.253 272.317C300.722 274.059 301.033 275.441 301.033 275.441Z" fill="black"/>
<path d="M318.924 292.023L317.815 291.617C317.815 291.617 315.998 294.236 314.946 294.583C313.894 294.93 311.676 296.902 311.676 296.902L309.099 299.704C309.099 299.704 307.186 300.111 307.755 298.264C308.324 296.417 306.703 294.099 306.703 294.099C306.703 294.099 303.428 284.891 303.428 282.965C303.428 281.04 300.722 272.959 300.722 272.959C300.722 272.959 297.327 282.009 291.131 279.128C291.131 279.128 295.635 292.979 295.749 296.423C295.864 299.868 298.848 309.475 298.848 309.475C298.848 309.475 299.962 316.607 305.981 316.208C305.981 316.208 314.286 318.323 316.098 316.208C317.911 314.092 319.546 312.429 320.402 312.187C321.257 311.944 322.037 310.589 322.037 310.589V301.067L318.924 292.023Z" fill="#4C4981"/>
<path opacity="0.1" d="M308.515 301.067C308.515 301.067 309.978 308.519 309.041 309.318L308.515 301.067Z" fill="black"/>
<path opacity="0.1" d="M357.179 348.749C349.4 349.09 332.259 349.515 331.494 346.785C331.323 346.09 331.232 345.363 331.226 344.63L356.639 346.464L357.179 348.749Z" fill="black"/>
<path opacity="0.1" d="M359.092 415.594C359.092 415.594 358.613 417.415 357.958 419.805C354.731 419.537 350.457 419.255 346.397 419.216C344.963 419.216 343.557 419.216 342.228 419.281C339.407 419.399 336.969 419.713 335.415 420.316C333.45 421.144 331.396 421.508 329.343 421.39C328.817 418.62 328.453 416.629 328.453 416.629C328.453 416.629 337.289 415.614 342.649 415.26L343.07 411.187L359.092 415.594Z" fill="black"/>
<path d="M365.934 386.281L364.939 389.163C364.939 389.163 364.8 390.021 364.624 391.383C364.251 394.317 363.667 399.608 363.887 403.826C364.179 409.995 363.242 419.36 363.242 419.36C363.242 419.36 341.726 416.878 335.415 419.36C329.104 421.842 325.996 419.36 325.996 419.36C325.996 419.36 326.761 410.073 324.886 405.266C323.61 401.992 322.711 387.375 322.682 377.761C322.682 373.327 322.845 369.968 323.251 369.287C324.537 367.126 330.031 345.501 330.031 345.501L331.284 345.593L334.631 345.835L353.66 347.21L356.648 347.426L356.964 348.736L365.934 386.281Z" fill="#444053"/>
<path d="M375.405 376.667L375.582 379.234C375.582 379.234 366.158 375.03 366.636 369.863C367.114 364.696 366.636 365.279 366.636 365.279L374.21 366.156L375.405 376.667Z" fill="#4C4981"/>
<path opacity="0.1" d="M375.405 376.667L375.582 379.234C375.582 379.234 366.158 375.03 366.636 369.863C367.114 364.696 366.636 365.279 366.636 365.279L374.21 366.156L375.405 376.667Z" fill="black"/>
<path opacity="0.1" d="M314.803 303.136C315.765 304.256 316.899 305.064 318.121 305.5C317.767 305.395 317.438 305.17 317.165 304.845C316.491 304.191 315.85 303.477 315.2 302.782C314.674 302.219 314.019 301.283 313.373 301.054C313.796 301.814 314.275 302.512 314.803 303.136Z" fill="black"/>
<path opacity="0.1" d="M314.946 306.509C315.249 306.978 315.495 307.511 315.673 308.087C315.975 309.717 315.957 311.427 315.62 313.045L314.11 308.054C313.847 307.203 313.584 306.352 313.268 305.54C313.129 305.192 312.259 303.745 312.36 303.444C312.627 302.593 314.664 306.031 314.946 306.509Z" fill="black"/>
<path opacity="0.1" d="M357.103 334.145C358.133 333.974 359.096 333.357 359.852 332.384C358.298 332.652 356.825 333.49 355.295 333.929C353.875 334.381 352.386 334.193 351.05 333.392C352.809 334.571 355.228 334.61 357.103 334.145Z" fill="black"/>
<path opacity="0.1" d="M352.709 319.482C352.43 319.539 352.146 319.442 351.92 319.214C350.753 318.297 349.602 317.341 348.468 316.345C347.363 315.369 346.029 314.381 345.087 313.149C347.406 316.018 349.567 318.441 352.709 319.482Z" fill="black"/>
<path opacity="0.1" d="M355.95 336.47C356.563 336.508 357.177 336.44 357.777 336.267C358.384 336.094 358.92 335.612 359.278 334.918C359.061 334.849 358.833 334.899 358.642 335.056C356.79 336.123 354.755 336.457 352.771 336.018C353.722 336.575 354.941 336.464 355.95 336.47Z" fill="black"/>
<path opacity="0.1" d="M344.877 373.655C343.659 374.158 342.409 374.493 341.143 374.657C340.158 374.719 339.171 374.693 338.188 374.578L333.407 374.166L331.016 373.956C330.734 373.956 329.582 373.956 330.151 373.177C330.437 372.797 332.034 373.039 332.446 373.02C333.239 372.985 334.036 372.965 334.836 372.961C336.419 372.961 338.006 372.961 339.589 373.092C341.363 373.209 343.108 373.393 344.877 373.655Z" fill="black"/>
<path opacity="0.1" d="M339.335 376.897C338.523 376.851 337.476 377.512 336.639 377.656C335.703 377.808 334.76 377.858 333.818 377.807C331.954 377.746 330.114 377.231 328.382 376.287C332.03 376.543 335.687 376.694 339.335 376.897Z" fill="black"/>
<path opacity="0.1" d="M329.094 380.328C329.448 380.426 329.796 380.557 330.136 380.721C332.154 381.507 334.301 380.813 336.352 380.119C335.84 381.173 334.918 381.625 333.995 381.913C332.494 382.434 330.929 382.512 329.405 382.142C328.927 382.011 327.726 381.775 327.492 381.094C327.1 380.092 328.645 380.23 329.094 380.328Z" fill="black"/>
<path opacity="0.1" d="M340.406 385.495C341.011 385.665 341.609 385.884 342.195 386.15C344.466 386.923 346.823 385.862 349.104 385.148C351.845 384.295 354.657 383.939 357.466 384.087C356.964 384.087 356.165 384.69 355.673 384.893C355.028 385.161 354.372 385.41 353.717 385.633C352.431 386.065 351.126 386.419 349.811 386.674C347.157 387.2 344.471 387.36 341.793 387.152C340.569 387.06 338.446 387.231 337.399 386.386C338.304 385.649 339.36 385.336 340.406 385.495Z" fill="black"/>
<path opacity="0.1" d="M341.262 286.725C341.262 286.725 341.377 294.099 340.502 297.465C340.225 298.513 339.794 300.445 339.326 302.612C338.814 305.016 338.255 307.707 337.825 309.816C337.394 311.925 337.107 313.339 337.107 313.339C337.107 313.339 335.133 335.37 334.621 345.868C334.621 346.051 334.621 346.241 334.592 346.418C334.564 347.007 334.516 347.623 334.444 348.258C333.306 358.684 326.742 374.762 324.537 376.045C323.85 376.477 323.222 377.069 322.682 377.794C322.682 373.36 322.845 370.001 323.251 369.319C324.537 367.158 330.031 345.534 330.031 345.534L331.284 345.625C331.255 345.324 331.236 344.971 331.226 344.663C331.126 340.491 332.546 334.086 332.546 334.086C332.546 334.086 333.364 321.27 333.364 320.713C333.364 320.157 332.661 311.178 332.661 311.178L334.067 303.974L336.758 301.394C337.093 295.834 337.892 289.082 339.799 287.242C340.755 286.218 341.517 284.895 342.023 283.385C342.4 283.457 341.712 282.998 341.712 282.998L341.262 286.725Z" fill="black"/>
<path d="M342.29 282.592C341.803 282.364 341.285 282.287 340.773 282.366C340.261 282.445 339.768 282.679 339.331 283.051C337.982 284.36 335.353 284.249 334.65 284.013C333.947 283.778 326.641 282.487 326.044 282.808C325.446 283.129 324.289 281.688 323.529 283.614C322.768 285.539 322.419 286.574 321.659 287.052C320.899 287.53 319.551 289.056 319.747 289.377C319.943 289.698 317.834 291.617 317.834 291.617L322.099 310.608C322.099 310.608 319.35 334.63 318.006 336.712C316.663 338.795 304.733 365.783 309.003 370.59C312.383 374.23 315.96 377.514 319.704 380.413C320.182 380.734 321.865 376.412 324.203 375.05C326.541 373.688 333.794 355.665 334.243 345.416C334.693 335.167 336.758 312.344 336.758 312.344C336.758 312.344 339.273 299.849 340.148 296.482C341.023 293.116 340.908 285.742 340.908 285.742L342.29 282.592Z" fill="#4C4981"/>
<path opacity="0.1" d="M365.934 386.281L364.939 389.163C364.939 389.163 364.8 390.021 364.624 391.383C364.446 391.352 364.28 391.249 364.145 391.088C362.682 389.484 354.105 377.394 353.679 366.661C353.378 358.743 353.521 351.919 353.617 348.88C353.646 347.924 353.674 347.348 353.674 347.223C353.674 347.223 360.339 336.169 359.579 332.253C358.819 328.336 357.064 307.367 357.064 307.367L356.806 304.616L356.361 299.966L355.3 288.715L356.4 289.069C356.586 289.42 356.81 289.732 357.064 289.992L358.202 299.888L362.152 305.847L362.797 342.128L360.98 348.612C360.98 348.612 359.503 348.703 357.198 348.802H356.973L365.934 386.281Z" fill="black"/>
<path d="M369.615 326.391C369.615 326.391 367.98 325.507 367.865 326.391C367.75 327.275 367.454 329.188 367.454 329.188C367.454 329.188 367.746 333.837 366.498 335.678C365.25 337.518 365.063 345.285 365.063 345.285C365.063 345.285 363.093 352.973 364.026 355.377C364.365 356.248 364.891 360.616 365.417 365.855C365.752 369.13 366.082 372.725 366.373 376.012C366.904 381.985 367.301 386.929 367.301 386.929C367.301 386.929 366.244 392.214 364.781 390.61C363.318 389.005 354.741 376.916 354.32 366.183C354.033 358.645 354.148 352.096 354.243 348.867C354.282 347.498 354.32 346.726 354.32 346.726C354.32 346.726 360.985 335.671 360.225 331.748C359.465 327.826 357.71 306.862 357.71 306.862L357.404 303.621L357.074 300.137L356.997 299.37L355.941 288.237C356.127 288.296 362.687 290.326 363.552 291.512C364.418 292.697 369.768 294.393 369.768 294.393C370.575 294.693 371.308 295.284 371.892 296.104C372.476 296.924 372.888 297.944 373.086 299.056C373.139 299.279 373.177 299.515 373.215 299.757C373.918 304.407 373.694 304.963 374.172 305.769C374.65 306.574 369.615 326.391 369.615 326.391Z" fill="#4C4981"/>
<path opacity="0.1" d="M366.412 376.006C364.021 375.351 360.473 373.838 360.555 370.498C360.626 367.374 363.371 366.248 365.451 365.849C365.785 369.11 366.115 372.718 366.412 376.006Z" fill="black"/>
<path d="M373.827 374.342C373.732 374.624 373.349 374.866 372.804 375.082C371.525 375.499 370.226 375.79 368.917 375.953C368.917 375.953 360.789 375.069 360.904 370.02C360.99 366.399 364.662 365.436 366.722 365.22C367.179 365.161 367.637 365.135 368.095 365.141C368.095 365.141 374.176 373.308 373.827 374.342Z" fill="#AE6E79"/>
<path opacity="0.1" d="M373.827 374.342C373.732 374.624 373.349 374.866 372.804 375.082C370.686 371.199 367.731 366.215 366.283 365.776L366.722 365.22C367.179 365.161 367.637 365.135 368.095 365.141C368.095 365.141 374.176 373.308 373.827 374.342Z" fill="black"/>
<path d="M371.781 305.232L374.172 305.716C375.035 307.799 375.993 309.805 377.04 311.722C377.683 312.816 378.052 314.163 378.092 315.566C378.092 315.566 381.602 322.691 382.711 323.49C383.82 324.289 385.518 329.738 385.518 329.738C385.518 329.738 388.267 332.22 388.267 335.023C388.316 337.36 388.491 339.689 388.793 341.991C388.855 342.39 388.386 347.361 387.215 349.85C386.044 352.338 384.872 357.826 384.934 358.808C384.996 359.791 381.659 364.899 380.727 366.497C379.949 367.991 379.264 369.573 378.68 371.225L375.582 379.234C375.582 379.234 369.032 366.019 366.636 365.298C366.636 365.298 369.323 361.775 370.667 361.133C372.011 360.492 373.301 355.239 373.359 354.008C373.416 352.777 374.588 348.802 375.812 348.114C377.036 347.426 377.686 346.673 377.16 345.547C376.634 344.42 377.16 342.272 377.16 342.272C377.16 342.272 373.708 336.025 373.239 332.449C372.771 328.873 369.615 326.444 369.615 326.444L367.803 320.353L371.781 305.232Z" fill="#4C4981"/>
<path opacity="0.1" d="M380.478 335.128C381.801 333.598 383.466 332.733 385.197 332.678C384.088 332.94 382.921 333.274 382.109 334.335C381.789 334.794 381.503 335.294 381.253 335.828C380.975 336.372 378.719 340.301 378.384 339.679C377.825 338.769 380.024 335.658 380.478 335.128Z" fill="black"/>
<path opacity="0.1" d="M375.181 331.336C375.539 331.293 375.882 331.121 376.175 330.837C376.468 330.553 376.701 330.167 376.849 329.718C377.134 328.816 377.31 327.856 377.37 326.876C377.541 325.236 377.782 323.611 378.092 322.01C378.185 321.694 378.225 321.352 378.207 321.012C378.19 320.672 378.116 320.341 377.992 320.045C377.864 319.534 377.69 319.046 377.476 318.592C377.045 319.246 376.921 320.772 376.744 321.65C376.524 322.737 376.323 323.831 376.132 324.924C376.032 325.448 375.238 331.336 375.181 331.336Z" fill="black"/>
<path opacity="0.1" d="M373.11 299.004C372.875 299.426 372.603 299.808 372.302 300.143C371.346 301.185 370.079 302.062 369.959 303.706C369.993 304.24 369.944 304.778 369.816 305.284C369.51 306.005 368.759 305.939 368.162 305.802C367.657 305.739 367.174 305.495 366.761 305.094C366.134 304.361 366.077 303.051 365.599 302.128C365.308 301.651 364.942 301.272 364.527 301.021C364.112 300.77 363.661 300.654 363.208 300.68C362.314 300.641 361.425 300.916 360.531 300.968C359.956 301.008 359.38 300.955 358.814 300.811C358.628 300.772 358.442 300.72 358.26 300.654C357.86 300.519 357.47 300.337 357.093 300.111C356.898 300.004 356.708 299.882 356.524 299.744C355.926 299.323 355.371 298.794 354.875 298.172C354 297.072 353.273 295.552 353.345 293.922C353.388 292.92 353.717 291.996 353.823 291.008C354.181 288.178 352.809 285.506 351.322 283.483C350.729 282.677 350.098 281.898 349.505 281.079C348.582 279.913 347.853 278.488 347.368 276.901C346.969 275.212 346.839 273.426 346.985 271.662C347.12 269.874 347.157 268.074 347.095 266.279C346.656 259.913 342.687 255.034 338.719 252.382L338.542 252.258C339.719 250.407 341.168 248.917 342.794 247.886C344.42 246.855 346.187 246.305 347.979 246.272C349.771 246.239 351.548 246.725 353.193 247.697C354.839 248.669 356.317 250.105 357.529 251.912C358.742 253.719 359.663 255.856 360.232 258.184C360.8 260.512 361.004 262.978 360.83 265.421C360.656 267.864 360.107 270.229 359.22 272.362C358.333 274.494 357.128 276.347 355.683 277.798C355.64 278.001 355.601 278.204 355.568 278.401C354.65 283.43 355.257 286.482 355.941 288.165C356.127 288.224 362.687 290.254 363.553 291.44C364.418 292.625 369.768 294.321 369.768 294.321C370.581 294.618 371.321 295.209 371.909 296.033C372.497 296.857 372.912 297.884 373.11 299.004Z" fill="black"/>
<path d="M337.7 247.641C337.963 247.228 338.36 247.018 338.628 246.619C339.455 245.388 338.628 243.377 338.929 241.753C339.254 239.952 340.87 239.166 342.219 239.356C343.567 239.546 344.829 240.398 346.177 240.607C348.272 240.928 350.299 239.684 352.34 238.957C354.382 238.23 356.849 238.191 358.255 240.332C359.661 242.474 359.565 246.121 361.315 247.673C362.123 248.387 363.141 248.466 364.016 248.983C364.974 249.656 365.768 250.696 366.302 251.976C367.687 254.956 368.297 258.489 368.033 262.002C367.884 263.902 367.483 265.748 367.32 267.648C367.155 269.62 367.252 271.617 367.607 273.542C367.975 275.506 368.774 277.628 370.203 278.257C370.534 278.356 370.855 278.508 371.16 278.709C371.987 279.416 371.877 281.079 371.666 282.376L370.815 287.753C371.633 288.604 372.905 288.237 373.684 289.135C373.996 289.525 374.227 290.022 374.353 290.575C374.738 292.079 374.78 293.707 374.473 295.244C374.166 296.781 373.526 298.154 372.637 299.181C371.681 300.222 370.414 301.099 370.294 302.737C370.331 303.271 370.282 303.809 370.151 304.315C369.849 305.035 369.094 304.97 368.496 304.832C367.994 304.769 367.512 304.525 367.1 304.125C366.469 303.392 366.417 302.082 365.938 301.158C365.647 300.683 365.281 300.305 364.866 300.054C364.452 299.803 364.001 299.686 363.548 299.711C362.649 299.672 361.764 299.947 360.865 300.006C358.792 300.122 356.768 299.121 355.228 297.216C354.349 296.109 353.627 294.596 353.694 292.959C353.737 291.964 354.067 291.034 354.172 290.045C354.526 287.222 353.158 284.544 351.671 282.52C350.184 280.497 348.439 278.63 347.712 275.938C346.804 272.605 347.684 268.885 347.44 265.349C347 258.977 343.036 254.104 339.063 251.446C338.178 250.823 336.672 249.245 337.7 247.641Z" fill="#444053"/>
<path opacity="0.1" d="M368.97 302.638C368.339 301.898 368.286 300.595 367.808 299.672C367.517 299.195 367.15 298.817 366.736 298.565C366.321 298.313 365.87 298.194 365.417 298.218C364.518 298.179 363.629 298.454 362.735 298.513C360.654 298.638 358.621 297.633 357.079 295.716C356.199 294.616 355.482 293.097 355.549 291.466C355.592 290.464 355.922 289.534 356.027 288.552C356.385 285.723 355.013 283.044 353.526 281.02C352.039 278.997 350.299 277.13 349.567 274.439C348.664 271.112 349.567 267.392 349.3 263.849C348.855 257.477 344.891 252.605 340.923 249.946C339.995 249.324 338.489 247.745 339.517 246.141C339.775 245.728 340.172 245.519 340.44 245.119C341.267 243.895 340.44 241.878 340.746 240.26C340.805 239.938 340.907 239.634 341.047 239.363C340.048 239.618 339.135 240.391 338.891 241.701C338.599 243.325 339.417 245.335 338.59 246.567C338.322 246.966 337.925 247.176 337.662 247.582C336.634 249.186 338.14 250.771 339.068 251.387C343.041 254.045 347.005 258.924 347.444 265.29C347.688 268.833 346.808 272.553 347.717 275.886C348.444 278.571 350.189 280.47 351.676 282.468C353.163 284.465 354.545 287.163 354.176 289.992C353.975 290.95 353.815 291.923 353.698 292.907C353.631 294.537 354.353 296.057 355.233 297.157C356.774 299.074 358.805 300.08 360.885 299.953C361.783 299.894 362.668 299.626 363.567 299.659C364.02 299.635 364.471 299.754 364.885 300.006C365.299 300.258 365.666 300.637 365.957 301.113C366.436 302.036 366.488 303.346 367.119 304.079C367.532 304.477 368.013 304.718 368.515 304.78C369.113 304.931 369.869 304.983 370.17 304.269C370.277 303.978 370.323 303.651 370.304 303.326C369.823 303.261 369.362 303.024 368.97 302.638Z" fill="black"/>
<path d="M299.369 263.718H266.297V219.081H299.393L299.369 263.718ZM298.891 196.415H266.775C266.775 127.049 314.913 131.103 314.913 87.2184C314.913 63.0464 300.469 43.6813 282.821 43.6813C265.173 43.6813 250.734 64.5592 250.734 87.9061H218.642C218.628 76.3565 220.278 64.9166 223.498 54.2424C226.718 43.5682 231.445 33.8696 237.407 25.7029C243.37 17.5361 250.451 11.0617 258.244 6.65105C266.037 2.24038 274.389 -0.0198335 282.821 7.43159e-06C318.269 7.43159e-06 347 38.7368 347 87.2184C347 142.092 298.867 148.339 298.867 196.415H298.891Z" fill="#6C63FF"/>
<path opacity="0.1" d="M134.42 250.424H125.89V238.885H134.42V250.424ZM134.291 233.069H126.02C126.02 215.191 138.427 216.232 138.427 204.909C138.423 203.427 138.205 201.962 137.787 200.595C137.369 199.229 136.758 197.989 135.99 196.946C135.222 195.903 134.311 195.077 133.31 194.517C132.309 193.956 131.237 193.671 130.155 193.678C127.971 193.747 125.891 194.972 124.352 197.097C122.814 199.222 121.936 202.08 121.903 205.073H113.631C113.686 199.127 115.445 193.449 118.528 189.262C121.611 185.076 125.772 182.717 130.113 182.694C134.455 182.67 138.629 184.985 141.736 189.138C144.843 193.291 146.634 198.951 146.722 204.896C146.699 219.042 134.291 220.653 134.291 233.043V233.069Z" fill="#6C63FF"/>
<path opacity="0.1" d="M199.006 330.589H190.476V319.083H199.006V330.589ZM198.881 313.241H190.61C190.61 295.356 203.017 296.404 203.017 285.081C203.013 283.6 202.795 282.134 202.377 280.768C201.959 279.402 201.348 278.162 200.58 277.12C199.812 276.077 198.901 275.253 197.9 274.692C196.899 274.132 195.827 273.848 194.745 273.856C192.552 273.91 190.46 275.131 188.912 277.26C187.363 279.389 186.481 282.259 186.45 285.264H178.178C178.233 279.318 179.992 273.64 183.075 269.454C186.158 265.267 190.319 262.908 194.66 262.885C199.002 262.862 203.176 265.176 206.283 269.33C209.39 273.483 211.181 279.142 211.269 285.087C211.284 299.233 198.881 300.851 198.881 313.241Z" fill="#6C63FF"/>
<path opacity="0.1" d="M238.279 188.674H232.097V180.351H238.279V188.674ZM238.188 176.094H232.192C232.192 163.14 241.186 163.893 241.186 155.694C241.182 154.621 241.024 153.559 240.721 152.569C240.417 151.58 239.975 150.681 239.418 149.926C238.861 149.171 238.201 148.573 237.476 148.167C236.75 147.761 235.974 147.555 235.19 147.56C233.603 147.604 232.091 148.491 230.973 150.032C229.854 151.574 229.216 153.651 229.194 155.825H223.199C223.186 151.469 224.437 147.284 226.677 144.192C228.917 141.099 231.962 139.352 235.142 139.335C238.323 139.317 241.378 141.031 243.635 144.099C245.893 147.167 247.169 151.338 247.182 155.694C247.172 165.943 238.188 167.115 238.188 176.094Z" fill="#6C63FF"/>
<path opacity="0.1" d="M343.868 200.423H340.373V195.708H343.868V200.423ZM343.815 193.317H340.406C340.406 185.996 345.489 186.421 345.489 181.785C345.489 181.178 345.401 180.578 345.231 180.018C345.06 179.459 344.81 178.951 344.495 178.525C344.18 178.098 343.807 177.762 343.396 177.534C342.986 177.307 342.547 177.194 342.104 177.201C341.207 177.226 340.353 177.727 339.721 178.598C339.088 179.469 338.727 180.642 338.714 181.87H335.324C335.364 179.45 336.091 177.147 337.353 175.451C338.614 173.755 340.309 172.801 342.076 172.791C343.843 172.782 345.543 173.718 346.814 175.401C348.085 177.083 348.826 179.378 348.879 181.798C348.898 187.554 343.815 188.242 343.815 193.317Z" fill="#6C63FF"/>
<path opacity="0.1" d="M397.303 414.88H393.808V410.165H397.303V414.88ZM397.251 407.775H393.861C393.861 400.446 398.948 400.879 398.948 396.242C398.942 395.019 398.581 393.849 397.946 392.989C397.31 392.13 396.451 391.651 395.558 391.658C394.661 391.681 393.806 392.182 393.174 393.053C392.541 393.924 392.181 395.098 392.168 396.327H388.778C388.818 393.907 389.546 391.604 390.807 389.908C392.068 388.212 393.763 387.258 395.53 387.249C397.298 387.239 398.998 388.176 400.268 389.858C401.539 391.54 402.28 393.836 402.333 396.255C402.352 402.038 397.27 402.699 397.27 407.775H397.251Z" fill="#6C63FF"/>
</g>
<defs>
<linearGradient id="paint0_linear" x1="333.349" y1="544.902" x2="333.349" y2="237.922" gradientUnits="userSpaceOnUse">
<stop stop-color="#808080" stop-opacity="0.25"/>
<stop offset="0.54" stop-color="#808080" stop-opacity="0.12"/>
<stop offset="1" stop-color="#808080" stop-opacity="0.1"/>
</linearGradient>
<clipPath id="clip0">
<rect width="480" height="548" fill="white"/>
</clipPath>
</defs>
</svg>
